# xmcd CD database file
#
# Track frame offsets:
#	187
#	21515
#	44882
#	65825
#	86910
#	111062
#	132685
#	154405
#	178550
#	203820
#
# Disc length: 3076 seconds
#
# Revision: 0
# Processed by: cddbd v1.5.2PL0 Copyright (c) Steve Scherf et al.
# Submitted via: CDex 1.51
#
DISCID=9e0c020a
DTITLE=Mark Johnson - Saxy Storm
DYEAR=1995
DGENRE=Jazz
TTITLE0=On The Sky
TTITLE1=Blue Smoke
TTITLE2=When You Were Mine
TTITLE3=The Way You Do The Things You Do
TTITLE4=Dim The Lights
TTITLE5=Gotta Do it Good
TTITLE6=Daydream
TTITLE7=Island Lullaby
TTITLE8=You're The One
TTITLE9=The Long Goodbye
EXTD=YEAR: 1995
EXTT0=
EXTT1=
EXTT2=
EXTT3=
EXTT4=
EXTT5=
EXTT6=
EXTT7=
EXTT8=
EXTT9=
PLAYORDER=
